<svg width="60" height="60" viewBox="0 0 60 60" fill="none" xmlns="http://www.w3.org/2000/svg">
<g clip-path="url(#clip0_1_944)">
<path d="M51.8058 22.2122V6.0804C51.8058 5.15877 51.0586 4.41159 50.137 4.41159H3.18785C2.26622 4.41159 1.51904 5.15877 1.51904 6.0804V32.2251H38.4554V27.2187C38.4554 24.4581 40.7011 22.2122 43.4618 22.2122H51.8058Z" fill="#D92E24"/>
<path d="M1.51904 43.9067C1.51904 44.8284 2.26622 45.5755 3.18785 45.5755H38.4554V35.5627H1.51904V43.9067Z" fill="#D92E24"/>
<path d="M35.0066 52.2508H33.3377V48.9132H19.9873V52.2508H18.3185C17.3968 52.2508 16.6497 52.998 16.6497 53.9196C16.6497 54.8412 17.3968 55.5884 18.3185 55.5884H35.0066C35.9282 55.5884 36.6754 54.8412 36.6754 53.9196C36.6754 52.998 35.9282 52.2508 35.0066 52.2508Z" fill="#D92E24"/>
<path d="M56.8123 25.5498H43.4618C42.5402 25.5498 41.793 26.297 41.793 27.2186V53.9196C41.793 54.8412 42.5402 55.5884 43.4618 55.5884H56.8123C57.7339 55.5884 58.4811 54.8412 58.4811 53.9196V27.2186C58.4811 26.297 57.7339 25.5498 56.8123 25.5498ZM50.137 50.582C49.2154 50.582 48.4682 49.8348 48.4682 48.9132C48.4682 47.9915 49.2154 47.2444 50.137 47.2444C51.0586 47.2444 51.8058 47.9915 51.8058 48.9132C51.8058 49.8348 51.0586 50.582 50.137 50.582Z" fill="#D92E24"/>
</g>
<defs>
<clipPath id="clip0_1_944">
<rect width="56.962" height="56.962" fill="white" transform="translate(1.51904 1.51898)"/>
</clipPath>
</defs>
</svg>
