<svg width="60" height="60" viewBox="0 0 60 60" fill="none" xmlns="http://www.w3.org/2000/svg">
<g clip-path="url(#clip0_1_935)">
<path d="M35.052 37.8274H37.1988L36.1303 34.9963L35.052 37.8274Z" fill="#D92E24"/>
<path d="M27.2186 21.1877C27.2186 20.537 26.6089 19.9872 25.8871 19.9872H24.6379C24.6393 20.4571 24.6404 20.9495 24.6404 21.1877C24.6404 21.4677 24.6424 21.9442 24.6447 22.3925C25.1044 22.3902 25.5967 22.3882 25.8871 22.3882C26.6089 22.3882 27.2186 21.8384 27.2186 21.1877Z" fill="#D92E24"/>
<path d="M22.9115 33.3376H21.6624C21.6637 33.8076 21.6648 34.3 21.6648 34.5382C21.6648 34.8182 21.6668 35.2947 21.669 35.7429C22.1287 35.7407 22.6211 35.7387 22.9114 35.7387C23.6331 35.7387 24.2429 35.1889 24.2429 34.5382C24.2429 33.8874 23.6332 33.3376 22.9115 33.3376Z" fill="#D92E24"/>
<path d="M56.6245 25.3557C56.1062 24.5686 55.6167 23.8251 55.4448 23.182C55.2594 22.4881 55.3106 21.5683 55.3648 20.5945C55.4514 19.0405 55.5495 17.279 54.6679 15.7556C53.7742 14.2108 52.1871 13.4134 50.7867 12.7098C49.9266 12.2776 49.1142 11.8694 48.6229 11.378C48.1314 10.8866 47.7233 10.0741 47.291 9.21397C46.5874 7.81351 45.7898 6.22625 44.2451 5.33243C42.7215 4.45086 40.9601 4.54876 39.406 4.63543C38.4322 4.68961 37.5124 4.74079 36.8184 4.55532C36.1753 4.38344 35.4317 3.89392 34.6445 3.37559C33.3227 2.50536 31.8245 1.51898 30.0001 1.51898C28.1757 1.51898 26.6776 2.50536 25.3558 3.37559C24.5686 3.89381 23.8251 4.38333 23.1821 4.55521C22.4883 4.74067 21.5685 4.68961 20.5945 4.63521C19.0403 4.54854 17.2791 4.45052 15.7557 5.3321C14.2109 6.2258 13.4134 7.81295 12.7099 9.21331C12.2776 10.0734 11.8694 10.8859 11.378 11.3772C10.8866 11.8686 10.0741 12.2768 9.21403 12.709C7.81357 13.4127 6.22631 14.2103 5.33249 15.7549C4.45092 17.2784 4.54904 19.0399 4.63549 20.594C4.68967 21.5678 4.74085 22.4877 4.55539 23.1817C4.3835 23.8247 3.89398 24.5684 3.37565 25.3556C2.50542 26.6774 1.51904 28.1755 1.51904 30C1.51904 31.8243 2.50542 33.3225 3.37554 34.6443C3.89376 35.4314 4.38328 36.1749 4.55516 36.818C4.74062 37.5119 4.68945 38.4317 4.63515 39.4055C4.5486 40.9595 4.45047 42.721 5.33205 44.2444C6.22575 45.7892 7.8129 46.5866 9.21325 47.2902C10.0734 47.7224 10.8858 48.1306 11.3771 48.622C11.8686 49.1134 12.2767 49.9259 12.709 50.786C13.4126 52.1865 14.2102 53.7737 15.7549 54.6676C17.2784 55.5491 19.0398 55.4509 20.594 55.3646C21.5678 55.3104 22.4876 55.2592 23.1816 55.4447C23.8247 55.6166 24.5683 56.1061 25.3555 56.6244C26.6775 57.4946 28.1756 58.481 30.0001 58.481C31.8244 58.481 33.3225 57.4946 34.6444 56.6244C35.4315 56.1062 36.175 55.6167 36.818 55.4448C37.5119 55.2593 38.4318 55.3105 39.4056 55.3648C40.9597 55.4513 42.7209 55.5494 44.2445 54.6679C45.7892 53.7742 46.5867 52.187 47.2903 50.7867C47.7225 49.9266 48.1307 49.1141 48.6221 48.6228C49.1135 48.1314 49.926 47.7232 50.7861 47.291C52.1865 46.5873 53.7738 45.7897 54.6676 44.2451C55.5492 42.7215 55.4511 40.9601 55.3646 39.406C55.3104 38.4322 55.2593 37.5123 55.4447 36.8183C55.6166 36.1753 56.1061 35.4316 56.6245 34.6444C57.4947 33.3226 58.4811 31.8244 58.4811 30C58.4811 28.1757 57.4947 26.6775 56.6245 25.3557ZM17.1147 33.3376H15.7597V41.1254C15.7597 41.7398 15.2616 42.2379 14.6471 42.2379C14.0327 42.2379 13.5346 41.7398 13.5346 41.1254V33.3376H12.1994C11.585 33.3376 11.0869 32.8395 11.0869 32.2251C11.0869 31.6106 11.585 31.1125 12.1994 31.1125H17.1147C17.7292 31.1125 18.2273 31.6106 18.2273 32.2251C18.2273 32.8395 17.7292 33.3376 17.1147 33.3376ZM17.2059 24.353V27.7749C17.2059 28.3894 16.7078 28.8875 16.0933 28.8875C15.4789 28.8875 14.9808 28.3894 14.9808 27.7749V18.8746C14.9808 18.2601 15.4789 17.7621 16.0933 17.7621H19.7006C20.3151 17.7621 20.8131 18.2601 20.8131 18.8746C20.8131 19.4891 20.3151 19.9871 19.7006 19.9871H17.2059V22.1279H19.4141C20.0286 22.1279 20.5267 22.626 20.5267 23.2404C20.5267 23.8549 20.0286 24.353 19.4141 24.353H17.2059ZM26.1906 40.3903C26.5965 40.8516 26.5517 41.5546 26.0905 41.9606C25.8791 42.1466 25.6169 42.2379 25.3559 42.2379C25.0473 42.2379 24.7402 42.1103 24.5202 41.8604L21.656 38.606V41.1254C21.656 41.7398 21.1579 42.2379 20.5435 42.2379C19.929 42.2379 19.4309 41.7398 19.4309 41.1254V32.2251C19.4309 31.6106 19.929 31.1125 20.5435 31.1125C20.5439 31.1125 20.5444 31.1126 20.5449 31.1126C20.5454 31.1126 20.5459 31.1125 20.5464 31.1125H22.9115C24.8726 31.1125 26.4681 32.6493 26.4681 34.5382C26.4681 36.0866 25.3956 37.3977 23.9287 37.8203L26.1906 40.3903ZM27.4961 28.51L24.6317 25.2556V27.7749C24.6317 28.3894 24.1336 28.8875 23.5192 28.8875C22.9047 28.8875 22.4066 28.3894 22.4066 27.7749V18.8746C22.4066 18.2601 22.9047 17.7621 23.5192 17.7621C23.5196 17.7621 23.5201 17.7622 23.5206 17.7622C23.5211 17.7622 23.5216 17.7621 23.5221 17.7621H25.8872C27.8483 17.7621 29.4438 19.2988 29.4438 21.1877C29.4438 22.7361 28.3713 24.0472 26.9044 24.4698L29.1664 27.0399C29.5723 27.5011 29.5276 28.2041 29.0663 28.6101C28.8549 28.7961 28.5927 28.8875 28.3317 28.8875C28.0231 28.8875 27.716 28.7598 27.4961 28.51ZM30.2782 41.1254C30.2782 41.7398 29.7801 42.2379 29.1657 42.2379C28.5512 42.2379 28.0531 41.7398 28.0531 41.1254V32.2251C28.0531 31.6106 28.5512 31.1125 29.1657 31.1125C29.7801 31.1125 30.2782 31.6106 30.2782 32.2251V41.1254ZM31.2562 18.8746C31.2562 18.2601 31.7543 17.7621 32.3688 17.7621H36.119C36.7335 17.7621 37.2316 18.2601 37.2316 18.8746C37.2316 19.4891 36.7335 19.9871 36.119 19.9871H33.4813V22.2122H35.8426C36.457 22.2122 36.9551 22.7103 36.9551 23.3248C36.9551 23.9392 36.457 24.4373 35.8426 24.4373H33.4813V26.6624H36.119C36.7335 26.6624 37.2316 27.1605 37.2316 27.7749C37.2316 28.3894 36.7335 28.8875 36.119 28.8875H32.3688C31.7543 28.8875 31.2562 28.3894 31.2562 27.7749V18.8746ZM40.0254 42.1663C39.896 42.215 39.7633 42.2382 39.6328 42.2383C39.1832 42.2383 38.7599 41.9638 38.5918 41.5182L38.0386 40.0526H34.2047L33.6453 41.5215C33.4266 42.0956 32.784 42.3839 32.2097 42.1652C31.6355 41.9464 31.3472 41.3037 31.566 40.7295L34.908 31.9546C34.9112 31.9462 34.9146 31.9378 34.9179 31.9295C35.1206 31.4337 35.5976 31.1132 36.133 31.1126H36.1344C36.6694 31.1126 37.1463 31.4322 37.3498 31.927C37.3539 31.937 37.3579 31.9473 37.3617 31.9574L40.6734 40.7327C40.8904 41.3074 40.6002 41.9493 40.0254 42.1663ZM40.1565 28.8875C39.5421 28.8875 39.044 28.3894 39.044 27.7749V18.8746C39.044 18.2601 39.5421 17.7621 40.1565 17.7621H43.9068C44.5213 17.7621 45.0193 18.2601 45.0193 18.8746C45.0193 19.4891 44.5213 19.9871 43.9068 19.9871H41.2691V22.2122H43.6303C44.2448 22.2122 44.7429 22.7103 44.7429 23.3248C44.7429 23.9392 44.2448 24.4373 43.6303 24.4373H41.2691V26.6624H43.9068C44.5213 26.6624 45.0193 27.1605 45.0193 27.7749C45.0193 28.3894 44.5213 28.8875 43.9068 28.8875H40.1565ZM46.6944 42.2305C45.6826 42.2362 44.9912 42.2385 44.5148 42.2385C43.524 42.2385 43.463 42.228 43.3839 42.2145C42.8497 42.123 42.4591 41.6599 42.4591 41.1179V32.2251C42.4591 31.6106 42.9571 31.1125 43.5716 31.1125C44.186 31.1125 44.6841 31.6106 44.6841 32.2251V40.0127C45.2613 40.0121 45.996 40.0093 46.682 40.0054C47.2978 39.9986 47.7974 40.4974 47.8008 41.1117C47.8042 41.7261 47.3088 42.227 46.6944 42.2305Z" fill="#D92E24"/>
</g>
<defs>
<clipPath id="clip0_1_935">
<rect width="60" height="60" fill="white"/>
</clipPath>
</defs>
</svg>
