<svg width="96" height="60" viewBox="0 0 96 60" fill="none" xmlns="http://www.w3.org/2000/svg">
<path d="M96 0L0 60V0H96Z" fill="#D92E24"/>
<path d="M33.3638 19.455C32.8898 18.3883 32.2008 17.4308 31.3398 16.6425L30.6294 15.9907C30.6053 15.9692 30.5762 15.9539 30.5448 15.9462C30.5134 15.9385 30.4806 15.9387 30.4493 15.9466C30.418 15.9546 30.3891 15.9701 30.3651 15.9918C30.3412 16.0136 30.3229 16.0408 30.312 16.0713L29.9946 16.9819C29.7969 17.5532 29.4331 18.1367 28.918 18.7104C28.8838 18.747 28.8447 18.7568 28.8179 18.7592C28.791 18.7617 28.7495 18.7568 28.7129 18.7226C28.6787 18.6933 28.6616 18.6494 28.6641 18.6054C28.7544 17.1357 28.3149 15.478 27.353 13.6738C26.5571 12.1748 25.4512 11.0053 24.0693 10.1899L23.061 9.59665C22.9292 9.51853 22.7607 9.62106 22.7681 9.77487L22.8218 10.9467C22.8584 11.7475 22.7656 12.4555 22.5459 13.0439C22.2773 13.7641 21.8916 14.4331 21.3984 15.0337C21.0552 15.4511 20.6662 15.8286 20.2388 16.1592C19.2092 16.9506 18.3721 17.9647 17.79 19.1255C17.2094 20.2964 16.907 21.5856 16.9062 22.8925C16.9062 24.0449 17.1333 25.1606 17.5825 26.2129C18.0163 27.226 18.6422 28.1454 19.4258 28.9204C20.2168 29.7016 21.1348 30.3169 22.1577 30.7441C23.2173 31.1884 24.3403 31.4131 25.5 31.4131C26.6597 31.4131 27.7827 31.1884 28.8423 30.7466C29.8627 30.3218 30.7906 29.7024 31.5742 28.9228C32.3652 28.1416 32.9854 27.2285 33.4175 26.2153C33.866 25.1659 34.0961 24.0362 34.0938 22.895C34.0938 21.7036 33.8496 20.5464 33.3638 19.455Z" fill="white"/>
</svg>
