<svg width="96" height="60" viewBox="0 0 96 60" fill="none" xmlns="http://www.w3.org/2000/svg">
<path d="M96 0L0 60V0H96Z" fill="#FFAB43"/>
<g clip-path="url(#clip0_105_51)">
<path d="M27.5282 13.9792C27.9284 13.7521 28.2423 13.399 28.4207 12.9748C28.5991 12.5507 28.6321 12.0794 28.5144 11.6345C28.3968 11.1897 28.1352 10.7962 27.7705 10.5157C27.4057 10.2352 26.9583 10.0833 26.4982 10.0837C26.038 10.0842 25.591 10.237 25.2268 10.5183C24.8626 10.7996 24.6018 11.1935 24.4851 11.6386C24.3684 12.0837 24.4023 12.5549 24.5816 12.9787C24.7609 13.4025 25.0754 13.755 25.4761 13.9813L25.4657 14C24.7834 15.424 23.8355 17.4636 22.3719 18.2292C21.1699 18.8573 19.4449 18.5417 18.1636 18.3063C18.1431 18.0149 18.0413 17.7352 17.8698 17.4988C17.6983 17.2623 17.4639 17.0787 17.1934 16.9687C16.9228 16.8588 16.6268 16.8268 16.339 16.8765C16.0512 16.9262 15.7831 17.0556 15.5651 17.25C15.3471 17.4444 15.188 17.696 15.1057 17.9762C15.0235 18.2564 15.0214 18.5541 15.0998 18.8355C15.1782 19.1168 15.3338 19.3706 15.5491 19.568C15.7644 19.7653 16.0307 19.8984 16.3178 19.9521L19.3886 27.8792C19.6163 28.4669 20.0165 28.9719 20.5364 29.3281C21.0564 29.6843 21.6719 29.875 22.3021 29.875H30.698C31.3282 29.875 31.9438 29.6843 32.4637 29.3281C32.9837 28.9719 33.3838 28.4669 33.6115 27.8792L36.6813 19.9521C36.9666 19.899 37.2315 19.7675 37.4462 19.5724C37.661 19.3772 37.8172 19.1261 37.8972 18.8472C37.9773 18.5683 37.9782 18.2726 37.8997 17.9932C37.8211 17.7139 37.6664 17.4619 37.4527 17.2656C37.2391 17.0692 36.975 16.9362 36.69 16.8815C36.405 16.8268 36.1105 16.8525 35.8393 16.9558C35.5681 17.0591 35.331 17.2358 35.1547 17.4663C34.9783 17.6967 34.8696 17.9717 34.8407 18.2604C33.5292 18.4302 31.8386 18.6469 30.6282 18.0146C29.1938 17.2646 28.2324 15.3656 27.5282 13.9792Z" fill="#1D1D1D"/>
</g>
<defs>
<clipPath id="clip0_105_51">
<rect width="25" height="25" fill="white" transform="translate(14 8)"/>
</clipPath>
</defs>
</svg>
